<?xml version="1.0" encoding="iso-8859-1"?>
<!-- Generator: Adobe Illustrator 21.0.2, SVG Export Plug-In . SVG Version: 6.00 Build 0)  -->
<svg version="1.1" id="Camada_1" xmlns="http://www.w3.org/2000/svg" xmlns:xlink="http://www.w3.org/1999/xlink" x="0px" y="0px"
	 width="92.1px" height="11.8px" viewBox="0 0 92.1 11.8" style="enable-background:new 0 0 92.1 11.8;" xml:space="preserve">
<g>
	<path d="M9.7,0v2.7H3.5v1.9h5.6v2.7H3.5v1.9h6.3v2.7H0V0H9.7z"/>
	<path d="M23.1,0l5,6.6V0h3.2v11.8h-3l-5-6.6v6.6h-3.2V0H23.1z"/>
	<path d="M51.4,0v2.8H48v9h-3.5v-9H41V0H51.4z"/>
	<path d="M70.7,0v2.7h-6.2v1.9h5.6v2.7h-5.6v1.9h6.3v2.7h-9.8V0H70.7z"/>
	<path d="M88.1,11.8l-1.6-3.2h-1.9v3.2h-3.5V0h5.5c3.2,0,5,1.5,5,4.2c0,1.8-0.7,3-2,3.8l2.4,3.9H88.1z M84.7,5.9h2
		c1,0,1.7-0.6,1.7-1.6c0-1-0.6-1.6-1.7-1.6h-2V5.9z"/>
</g>
</svg>
