<?xml version="1.0" encoding="iso-8859-1"?>
<!-- Generator: Adobe Illustrator 21.0.2, SVG Export Plug-In . SVG Version: 6.00 Build 0)  -->
<svg version="1.1" id="efetivos-svg" xmlns="http://www.w3.org/2000/svg" xmlns:xlink="http://www.w3.org/1999/xlink" x="0px"
	 y="0px" viewBox="0 0 526.1 526.1" style="enable-background:new 0 0 526.1 526.1;" xml:space="preserve">
<g id="efet-svg">
	<g>
		<path style="fill:#FFFFFF;" d="M239,138.9c-18-1.1-35.7,4.8-53,17.5c-17.4,12.8-28.1,27.8-32.2,45.2c-4.1,17.4-0.9,33.3,9.8,47.7
			l36.5,49.6l118.4-87.1L282,162.2C271.4,147.7,257,139.9,239,138.9z"/>
	</g>
	<g>
		<path style="fill:#FFFFFF;" d="M114,376.5c-12.8-17.5-20.8-36.7-23.8-57.9c-3-21.1-1.9-42.5,3.4-64c5.3-21.5,14.7-42.4,28.2-62.5
			c13.4-20.1,30.6-37.9,51.4-53.2c23.3-17.2,47-29,71.1-35.5c24.1-6.5,47.3-8.5,69.6-6.1c22.3,2.5,43.1,9.3,62.3,20.5
			c4.8,2.8,9.3,5.8,13.8,9L263,0L0,263l115.6,115.6C115.1,378,114.5,377.2,114,376.5z"/>
	</g>
	<g>
		<path style="fill:#FFFFFF;" d="M424.9,161.8c0.1,0.1,0.1,0.2,0.2,0.3L213.8,317.5l36,48.9c10,13.6,24.4,21.1,43.1,22.3
			c18.7,1.2,36.1-4.1,52.2-16c11.6-8.5,21.4-17.6,29.4-27.4c-7.4,2.2-14.5,2.3-21.4,0.3c-6.9-2-12.5-5.9-16.8-11.7
			c-5.8-7.9-7.5-17.1-4.9-27.6c2.5-10.5,8.6-19.3,18.1-26.3c9.6-7,19.7-10.2,30.5-9.5c10.8,0.7,19.1,5,24.9,12.9
			c7,9.6,9.9,19.6,8.7,30.1c-1.2,10.5-4.7,20.6-10.4,30.2c-5.7,9.7-12.7,18.6-21,27c-8.3,8.3-16.2,15.2-23.6,20.8
			c-21.6,15.9-44,27.4-67.3,34.6c-23.2,7.2-45.7,10.1-67.5,8.8c-21.8-1.3-42.1-6.8-61.1-16.5c-6.7-3.4-13.1-7.4-19.1-11.9L263,526.1
			l263-263L424.9,161.8z"/>
	</g>
</g>
</svg>
